<mxfile host="Electron" modified="2024-03-24T21:26:24.591Z" agent="Mozilla/5.0 (X11; Linux x86_64) AppleWebKit/537.36 (KHTML, like Gecko) draw.io/24.0.4 Chrome/120.0.6099.109 Electron/28.1.0 Safari/537.36" etag="el88qoFImWL3FgnUMTCz" version="24.0.4" type="device">
  <diagram name="Page-1" id="MGHjbF667yMq8NIgmSbx">
    <mxGraphModel dx="2440" dy="1785" grid="0" gridSize="10" guides="1" tooltips="1" connect="1" arrows="1" fold="1" page="0" pageScale="1" pageWidth="850" pageHeight="1100" math="0" shadow="0">
      <root>
        <mxCell id="0" />
        <mxCell id="1" parent="0" />
        <mxCell id="DqBkRv8KrqaulyezYVrb-1" value="&lt;div&gt;Ιδιοκτήτης&amp;nbsp;&lt;/div&gt;&lt;div&gt;εστιατορίου&lt;/div&gt;" style="shape=umlActor;verticalLabelPosition=bottom;verticalAlign=top;html=1;outlineConnect=0;" parent="1" vertex="1">
          <mxGeometry x="1343" y="-206" width="30" height="60" as="geometry" />
        </mxCell>
        <mxCell id="DqBkRv8KrqaulyezYVrb-9" value="&lt;div&gt;Πελάτης&amp;nbsp;&lt;/div&gt;&lt;div&gt;εστιατορίου&lt;/div&gt;" style="shape=umlActor;verticalLabelPosition=bottom;verticalAlign=top;html=1;outlineConnect=0;" parent="1" vertex="1">
          <mxGeometry x="286" y="2" width="30" height="60" as="geometry" />
        </mxCell>
        <mxCell id="DqBkRv8KrqaulyezYVrb-10" value="Σερβιτόρος" style="shape=umlActor;verticalLabelPosition=bottom;verticalAlign=top;html=1;outlineConnect=0;" parent="1" vertex="1">
          <mxGeometry x="286" y="327" width="30" height="60" as="geometry" />
        </mxCell>
        <mxCell id="DqBkRv8KrqaulyezYVrb-11" value="Μάγειρας" style="shape=umlActor;verticalLabelPosition=bottom;verticalAlign=top;html=1;outlineConnect=0;" parent="1" vertex="1">
          <mxGeometry x="1343" y="394" width="30" height="60" as="geometry" />
        </mxCell>
        <mxCell id="DqBkRv8KrqaulyezYVrb-12" value="Ταμείας" style="shape=umlActor;verticalLabelPosition=bottom;verticalAlign=top;html=1;outlineConnect=0;" parent="1" vertex="1">
          <mxGeometry x="1343" y="90" width="30" height="60" as="geometry" />
        </mxCell>
        <mxCell id="DqBkRv8KrqaulyezYVrb-16" value="Διανομέας" style="shape=umlActor;verticalLabelPosition=bottom;verticalAlign=top;html=1;outlineConnect=0;" parent="1" vertex="1">
          <mxGeometry x="1343" y="220" width="30" height="60" as="geometry" />
        </mxCell>
        <mxCell id="DqBkRv8KrqaulyezYVrb-17" value="Παραγγελία" style="ellipse;whiteSpace=wrap;html=1;strokeWidth=5;" parent="1" vertex="1">
          <mxGeometry x="734" y="173" width="120" height="80" as="geometry" />
        </mxCell>
        <mxCell id="DqBkRv8KrqaulyezYVrb-18" value="&lt;div&gt;Πληρωμή&lt;/div&gt;&lt;div&gt;φαγητού&lt;br&gt;&lt;/div&gt;" style="ellipse;whiteSpace=wrap;html=1;" parent="1" vertex="1">
          <mxGeometry x="806" y="301" width="120" height="80" as="geometry" />
        </mxCell>
        <mxCell id="DqBkRv8KrqaulyezYVrb-20" value="&lt;div&gt;Δημιουργία&lt;/div&gt;&lt;div&gt;λογαριασμού&lt;br&gt;&lt;/div&gt;&lt;div&gt;υπαλλήλου&lt;/div&gt;" style="ellipse;whiteSpace=wrap;html=1;" parent="1" vertex="1">
          <mxGeometry x="971" y="-430" width="120" height="80" as="geometry" />
        </mxCell>
        <mxCell id="DqBkRv8KrqaulyezYVrb-21" value="&lt;div&gt;Επιλογή&lt;/div&gt;&lt;div&gt;καταστήματος&lt;br&gt;&lt;/div&gt;" style="ellipse;whiteSpace=wrap;html=1;strokeWidth=6;" parent="1" vertex="1">
          <mxGeometry x="483" y="-353" width="120" height="80" as="geometry" />
        </mxCell>
        <mxCell id="DqBkRv8KrqaulyezYVrb-22" value="Κράτηση" style="ellipse;whiteSpace=wrap;html=1;" parent="1" vertex="1">
          <mxGeometry x="650" y="-186" width="120" height="80" as="geometry" />
        </mxCell>
        <mxCell id="DqBkRv8KrqaulyezYVrb-23" value="Σκανάρισμα &lt;br&gt;QR code" style="ellipse;whiteSpace=wrap;html=1;" parent="1" vertex="1">
          <mxGeometry x="655" y="-56" width="120" height="80" as="geometry" />
        </mxCell>
        <mxCell id="DqBkRv8KrqaulyezYVrb-24" value="Check-in" style="ellipse;whiteSpace=wrap;html=1;" parent="1" vertex="1">
          <mxGeometry x="810" y="64" width="120" height="80" as="geometry" />
        </mxCell>
        <mxCell id="DqBkRv8KrqaulyezYVrb-27" value="Check-out" style="ellipse;whiteSpace=wrap;html=1;" parent="1" vertex="1">
          <mxGeometry x="650" y="301" width="120" height="80" as="geometry" />
        </mxCell>
        <mxCell id="DqBkRv8KrqaulyezYVrb-28" value="&lt;div&gt;Προβολή&lt;/div&gt;&lt;div&gt;μενού&lt;br&gt;&lt;/div&gt;" style="ellipse;whiteSpace=wrap;html=1;" parent="1" vertex="1">
          <mxGeometry x="954" y="10" width="120" height="80" as="geometry" />
        </mxCell>
        <mxCell id="DqBkRv8KrqaulyezYVrb-71" style="edgeStyle=orthogonalEdgeStyle;rounded=0;orthogonalLoop=1;jettySize=auto;html=1;exitX=0;exitY=0.5;exitDx=0;exitDy=0;entryX=1;entryY=0.5;entryDx=0;entryDy=0;" parent="1" source="DqBkRv8KrqaulyezYVrb-29" target="DqBkRv8KrqaulyezYVrb-21" edge="1">
          <mxGeometry relative="1" as="geometry" />
        </mxCell>
        <mxCell id="DqBkRv8KrqaulyezYVrb-29" value="Περιγραφή&lt;br&gt;καταστήματος" style="ellipse;whiteSpace=wrap;html=1;align=center;dashed=1;" parent="1" vertex="1">
          <mxGeometry x="696" y="-299" width="100" height="40" as="geometry" />
        </mxCell>
        <mxCell id="DqBkRv8KrqaulyezYVrb-32" value="&lt;div&gt;Προβολή&lt;/div&gt;&lt;div&gt;ιστορικού παραγγελιών&lt;br&gt;&lt;/div&gt;" style="ellipse;whiteSpace=wrap;html=1;" parent="1" vertex="1">
          <mxGeometry x="430" y="-487" width="120" height="80" as="geometry" />
        </mxCell>
        <mxCell id="DqBkRv8KrqaulyezYVrb-34" value="&lt;div&gt;Προβολή εβδομαδιαίου&lt;/div&gt;&lt;div&gt;προγράμματος&lt;br&gt;&lt;/div&gt;" style="ellipse;whiteSpace=wrap;html=1;strokeWidth=6;" parent="1" vertex="1">
          <mxGeometry x="806" y="411" width="120" height="80" as="geometry" />
        </mxCell>
        <mxCell id="DqBkRv8KrqaulyezYVrb-35" value="&lt;div&gt;Προβολή &lt;br&gt;&lt;/div&gt;&lt;div&gt;εκκρεμών&lt;/div&gt;&lt;div&gt;Tasks&lt;/div&gt;" style="ellipse;whiteSpace=wrap;html=1;strokeWidth=6;" parent="1" vertex="1">
          <mxGeometry x="792" y="529" width="120" height="80" as="geometry" />
        </mxCell>
        <mxCell id="DqBkRv8KrqaulyezYVrb-36" value="&lt;div&gt;Κάλεσμα/ενημέρωση&lt;/div&gt;&lt;div&gt;σερβιτόρου&lt;br&gt;&lt;/div&gt;" style="ellipse;whiteSpace=wrap;html=1;" parent="1" vertex="1">
          <mxGeometry x="580" y="44" width="120" height="80" as="geometry" />
        </mxCell>
        <mxCell id="DqBkRv8KrqaulyezYVrb-41" value="&lt;div&gt;Διαχείριση&lt;/div&gt;&lt;div&gt;αποθήκης/τιμών&lt;br&gt;&lt;/div&gt;" style="ellipse;whiteSpace=wrap;html=1;strokeWidth=6;" parent="1" vertex="1">
          <mxGeometry x="1056" y="-114" width="120" height="80" as="geometry" />
        </mxCell>
        <mxCell id="DqBkRv8KrqaulyezYVrb-58" value="" style="endArrow=none;html=1;rounded=0;exitX=0.5;exitY=0.5;exitDx=0;exitDy=0;exitPerimeter=0;entryX=0;entryY=0.5;entryDx=0;entryDy=0;" parent="1" source="DqBkRv8KrqaulyezYVrb-9" target="DqBkRv8KrqaulyezYVrb-21" edge="1">
          <mxGeometry width="50" height="50" relative="1" as="geometry">
            <mxPoint x="304" y="90" as="sourcePoint" />
            <mxPoint x="727" y="-176" as="targetPoint" />
          </mxGeometry>
        </mxCell>
        <mxCell id="DqBkRv8KrqaulyezYVrb-59" value="" style="endArrow=none;html=1;rounded=0;exitX=0.5;exitY=0.5;exitDx=0;exitDy=0;exitPerimeter=0;entryX=0;entryY=0.5;entryDx=0;entryDy=0;" parent="1" source="DqBkRv8KrqaulyezYVrb-9" target="DqBkRv8KrqaulyezYVrb-22" edge="1">
          <mxGeometry width="50" height="50" relative="1" as="geometry">
            <mxPoint x="294" y="74" as="sourcePoint" />
            <mxPoint x="715" y="-36" as="targetPoint" />
          </mxGeometry>
        </mxCell>
        <mxCell id="DqBkRv8KrqaulyezYVrb-60" value="" style="endArrow=none;html=1;rounded=0;entryX=0;entryY=0.5;entryDx=0;entryDy=0;exitX=0.5;exitY=0.5;exitDx=0;exitDy=0;exitPerimeter=0;" parent="1" source="DqBkRv8KrqaulyezYVrb-9" target="DqBkRv8KrqaulyezYVrb-23" edge="1">
          <mxGeometry width="50" height="50" relative="1" as="geometry">
            <mxPoint x="296" y="99" as="sourcePoint" />
            <mxPoint x="717" y="96" as="targetPoint" />
          </mxGeometry>
        </mxCell>
        <mxCell id="DqBkRv8KrqaulyezYVrb-61" value="" style="endArrow=none;html=1;rounded=0;entryX=0;entryY=0.5;entryDx=0;entryDy=0;exitX=0.5;exitY=0.5;exitDx=0;exitDy=0;exitPerimeter=0;" parent="1" source="DqBkRv8KrqaulyezYVrb-9" target="DqBkRv8KrqaulyezYVrb-17" edge="1">
          <mxGeometry width="50" height="50" relative="1" as="geometry">
            <mxPoint x="321" y="150.20999999999998" as="sourcePoint" />
            <mxPoint x="732" y="281.21" as="targetPoint" />
          </mxGeometry>
        </mxCell>
        <mxCell id="DqBkRv8KrqaulyezYVrb-62" value="" style="endArrow=none;html=1;rounded=0;entryX=0;entryY=0.5;entryDx=0;entryDy=0;exitX=0.5;exitY=0.5;exitDx=0;exitDy=0;exitPerimeter=0;" parent="1" source="DqBkRv8KrqaulyezYVrb-10" target="DqBkRv8KrqaulyezYVrb-35" edge="1">
          <mxGeometry width="50" height="50" relative="1" as="geometry">
            <mxPoint x="283" y="118" as="sourcePoint" />
            <mxPoint x="704" y="406" as="targetPoint" />
          </mxGeometry>
        </mxCell>
        <mxCell id="DqBkRv8KrqaulyezYVrb-68" value="" style="endArrow=none;html=1;rounded=0;exitX=0.5;exitY=0.5;exitDx=0;exitDy=0;exitPerimeter=0;entryX=0;entryY=0.5;entryDx=0;entryDy=0;" parent="1" source="DqBkRv8KrqaulyezYVrb-9" target="DqBkRv8KrqaulyezYVrb-32" edge="1">
          <mxGeometry width="50" height="50" relative="1" as="geometry">
            <mxPoint x="301" y="45" as="sourcePoint" />
            <mxPoint x="732" y="-296" as="targetPoint" />
          </mxGeometry>
        </mxCell>
        <mxCell id="DqBkRv8KrqaulyezYVrb-72" value="" style="endArrow=none;html=1;rounded=0;entryX=0.5;entryY=0.5;entryDx=0;entryDy=0;entryPerimeter=0;exitX=1;exitY=0.5;exitDx=0;exitDy=0;" parent="1" source="DqBkRv8KrqaulyezYVrb-41" target="DqBkRv8KrqaulyezYVrb-1" edge="1">
          <mxGeometry width="50" height="50" relative="1" as="geometry">
            <mxPoint x="1156" y="-5" as="sourcePoint" />
            <mxPoint x="1206" y="-55" as="targetPoint" />
          </mxGeometry>
        </mxCell>
        <mxCell id="DqBkRv8KrqaulyezYVrb-73" value="" style="endArrow=none;html=1;rounded=0;entryX=0.5;entryY=0.5;entryDx=0;entryDy=0;entryPerimeter=0;exitX=1;exitY=0.5;exitDx=0;exitDy=0;" parent="1" source="DqBkRv8KrqaulyezYVrb-17" target="DqBkRv8KrqaulyezYVrb-11" edge="1">
          <mxGeometry width="50" height="50" relative="1" as="geometry">
            <mxPoint x="1042" y="-76" as="sourcePoint" />
            <mxPoint x="1312" y="-17" as="targetPoint" />
          </mxGeometry>
        </mxCell>
        <mxCell id="DqBkRv8KrqaulyezYVrb-75" value="" style="endArrow=none;html=1;rounded=0;entryX=0.5;entryY=0.5;entryDx=0;entryDy=0;entryPerimeter=0;exitX=1;exitY=0.5;exitDx=0;exitDy=0;" parent="1" source="DqBkRv8KrqaulyezYVrb-17" target="DqBkRv8KrqaulyezYVrb-16" edge="1">
          <mxGeometry width="50" height="50" relative="1" as="geometry">
            <mxPoint x="952" y="319" as="sourcePoint" />
            <mxPoint x="1340" y="203" as="targetPoint" />
          </mxGeometry>
        </mxCell>
        <mxCell id="DqBkRv8KrqaulyezYVrb-77" value="" style="endArrow=none;html=1;rounded=0;entryX=0.5;entryY=0.5;entryDx=0;entryDy=0;entryPerimeter=0;exitX=1;exitY=0.5;exitDx=0;exitDy=0;" parent="1" source="DqBkRv8KrqaulyezYVrb-17" target="DqBkRv8KrqaulyezYVrb-12" edge="1">
          <mxGeometry width="50" height="50" relative="1" as="geometry">
            <mxPoint x="1006" y="150" as="sourcePoint" />
            <mxPoint x="1394" y="164" as="targetPoint" />
          </mxGeometry>
        </mxCell>
        <mxCell id="DqBkRv8KrqaulyezYVrb-79" value="" style="endArrow=none;html=1;rounded=0;entryX=0.5;entryY=0.5;entryDx=0;entryDy=0;entryPerimeter=0;exitX=1;exitY=0.5;exitDx=0;exitDy=0;" parent="1" source="DqBkRv8KrqaulyezYVrb-18" target="DqBkRv8KrqaulyezYVrb-16" edge="1">
          <mxGeometry width="50" height="50" relative="1" as="geometry">
            <mxPoint x="966" y="359" as="sourcePoint" />
            <mxPoint x="1354" y="243" as="targetPoint" />
          </mxGeometry>
        </mxCell>
        <mxCell id="DqBkRv8KrqaulyezYVrb-80" value="" style="endArrow=none;html=1;rounded=0;entryX=0.5;entryY=0.5;entryDx=0;entryDy=0;entryPerimeter=0;exitX=1;exitY=0.5;exitDx=0;exitDy=0;" parent="1" source="DqBkRv8KrqaulyezYVrb-18" target="DqBkRv8KrqaulyezYVrb-12" edge="1">
          <mxGeometry width="50" height="50" relative="1" as="geometry">
            <mxPoint x="966" y="273" as="sourcePoint" />
            <mxPoint x="1354" y="157" as="targetPoint" />
          </mxGeometry>
        </mxCell>
        <mxCell id="DqBkRv8KrqaulyezYVrb-86" value="&lt;div&gt;Διαχείριση&lt;/div&gt;&lt;div&gt;προσωπικού&lt;br&gt;&lt;/div&gt;" style="ellipse;whiteSpace=wrap;html=1;" parent="1" vertex="1">
          <mxGeometry x="861" y="-370" width="120" height="80" as="geometry" />
        </mxCell>
        <mxCell id="DqBkRv8KrqaulyezYVrb-87" value="" style="endArrow=none;html=1;rounded=0;entryX=0.5;entryY=0.5;entryDx=0;entryDy=0;entryPerimeter=0;exitX=1;exitY=0.5;exitDx=0;exitDy=0;" parent="1" source="DqBkRv8KrqaulyezYVrb-22" target="DqBkRv8KrqaulyezYVrb-12" edge="1">
          <mxGeometry width="50" height="50" relative="1" as="geometry">
            <mxPoint x="980" y="153" as="sourcePoint" />
            <mxPoint x="1368" y="37" as="targetPoint" />
          </mxGeometry>
        </mxCell>
        <mxCell id="DqBkRv8KrqaulyezYVrb-89" value="" style="endArrow=none;html=1;rounded=0;exitX=1;exitY=0.5;exitDx=0;exitDy=0;entryX=0.5;entryY=0.5;entryDx=0;entryDy=0;entryPerimeter=0;" parent="1" source="DqBkRv8KrqaulyezYVrb-86" target="DqBkRv8KrqaulyezYVrb-1" edge="1">
          <mxGeometry width="50" height="50" relative="1" as="geometry">
            <mxPoint x="1062" y="-136" as="sourcePoint" />
            <mxPoint x="1332" y="-77" as="targetPoint" />
          </mxGeometry>
        </mxCell>
        <mxCell id="DqBkRv8KrqaulyezYVrb-91" value="" style="endArrow=none;html=1;rounded=0;exitX=1;exitY=1;exitDx=0;exitDy=0;entryX=0.5;entryY=0.5;entryDx=0;entryDy=0;entryPerimeter=0;" parent="1" source="DqBkRv8KrqaulyezYVrb-20" target="DqBkRv8KrqaulyezYVrb-1" edge="1">
          <mxGeometry width="50" height="50" relative="1" as="geometry">
            <mxPoint x="1054" y="-189" as="sourcePoint" />
            <mxPoint x="1315" y="-212" as="targetPoint" />
          </mxGeometry>
        </mxCell>
        <mxCell id="DqBkRv8KrqaulyezYVrb-92" value="&lt;div&gt;Πληρωμή&lt;/div&gt;&lt;div&gt;μισθών&lt;br&gt;&lt;/div&gt;" style="ellipse;whiteSpace=wrap;html=1;" parent="1" vertex="1">
          <mxGeometry x="1113" y="-430" width="120" height="80" as="geometry" />
        </mxCell>
        <mxCell id="DqBkRv8KrqaulyezYVrb-93" value="" style="endArrow=none;html=1;rounded=0;exitX=1;exitY=1;exitDx=0;exitDy=0;entryX=0.5;entryY=0.5;entryDx=0;entryDy=0;entryPerimeter=0;" parent="1" source="DqBkRv8KrqaulyezYVrb-92" target="DqBkRv8KrqaulyezYVrb-1" edge="1">
          <mxGeometry width="50" height="50" relative="1" as="geometry">
            <mxPoint x="1084" y="-115" as="sourcePoint" />
            <mxPoint x="1345" y="-138" as="targetPoint" />
          </mxGeometry>
        </mxCell>
        <mxCell id="DqBkRv8KrqaulyezYVrb-94" value="" style="endArrow=none;html=1;rounded=0;exitX=1;exitY=0.5;exitDx=0;exitDy=0;entryX=0.5;entryY=0.5;entryDx=0;entryDy=0;entryPerimeter=0;" parent="1" source="DqBkRv8KrqaulyezYVrb-35" target="DqBkRv8KrqaulyezYVrb-11" edge="1">
          <mxGeometry width="50" height="50" relative="1" as="geometry">
            <mxPoint x="946" y="630" as="sourcePoint" />
            <mxPoint x="1334" y="441" as="targetPoint" />
          </mxGeometry>
        </mxCell>
        <mxCell id="DqBkRv8KrqaulyezYVrb-95" value="" style="endArrow=none;html=1;rounded=0;exitX=1;exitY=0.5;exitDx=0;exitDy=0;entryX=0.5;entryY=0.5;entryDx=0;entryDy=0;entryPerimeter=0;" parent="1" source="DqBkRv8KrqaulyezYVrb-35" target="DqBkRv8KrqaulyezYVrb-12" edge="1">
          <mxGeometry width="50" height="50" relative="1" as="geometry">
            <mxPoint x="940" y="521.5" as="sourcePoint" />
            <mxPoint x="1328" y="332.5" as="targetPoint" />
          </mxGeometry>
        </mxCell>
        <mxCell id="DqBkRv8KrqaulyezYVrb-98" value="" style="endArrow=none;html=1;rounded=0;exitX=1;exitY=0.5;exitDx=0;exitDy=0;entryX=0.5;entryY=0.5;entryDx=0;entryDy=0;entryPerimeter=0;" parent="1" source="DqBkRv8KrqaulyezYVrb-35" target="DqBkRv8KrqaulyezYVrb-16" edge="1">
          <mxGeometry width="50" height="50" relative="1" as="geometry">
            <mxPoint x="955" y="564.5" as="sourcePoint" />
            <mxPoint x="1343" y="375.5" as="targetPoint" />
          </mxGeometry>
        </mxCell>
        <mxCell id="DqBkRv8KrqaulyezYVrb-99" value="" style="endArrow=none;html=1;rounded=0;exitX=1;exitY=0.5;exitDx=0;exitDy=0;entryX=0.5;entryY=0.5;entryDx=0;entryDy=0;entryPerimeter=0;" parent="1" source="DqBkRv8KrqaulyezYVrb-34" target="DqBkRv8KrqaulyezYVrb-16" edge="1">
          <mxGeometry width="50" height="50" relative="1" as="geometry">
            <mxPoint x="887" y="749" as="sourcePoint" />
            <mxPoint x="1275" y="560" as="targetPoint" />
          </mxGeometry>
        </mxCell>
        <mxCell id="DqBkRv8KrqaulyezYVrb-100" value="" style="endArrow=none;html=1;rounded=0;exitX=1;exitY=0.5;exitDx=0;exitDy=0;entryX=0.5;entryY=0.5;entryDx=0;entryDy=0;entryPerimeter=0;" parent="1" source="DqBkRv8KrqaulyezYVrb-34" target="DqBkRv8KrqaulyezYVrb-11" edge="1">
          <mxGeometry width="50" height="50" relative="1" as="geometry">
            <mxPoint x="944" y="709" as="sourcePoint" />
            <mxPoint x="1332" y="520" as="targetPoint" />
          </mxGeometry>
        </mxCell>
        <mxCell id="DqBkRv8KrqaulyezYVrb-101" value="" style="endArrow=none;html=1;rounded=0;exitX=1;exitY=0.5;exitDx=0;exitDy=0;entryX=0.5;entryY=0.5;entryDx=0;entryDy=0;entryPerimeter=0;" parent="1" source="DqBkRv8KrqaulyezYVrb-34" target="DqBkRv8KrqaulyezYVrb-12" edge="1">
          <mxGeometry width="50" height="50" relative="1" as="geometry">
            <mxPoint x="950" y="817.5" as="sourcePoint" />
            <mxPoint x="1338" y="628.5" as="targetPoint" />
          </mxGeometry>
        </mxCell>
        <mxCell id="DqBkRv8KrqaulyezYVrb-106" value="" style="endArrow=none;html=1;rounded=0;exitX=1;exitY=0.5;exitDx=0;exitDy=0;entryX=0.5;entryY=0.5;entryDx=0;entryDy=0;entryPerimeter=0;" parent="1" source="DqBkRv8KrqaulyezYVrb-29" target="DqBkRv8KrqaulyezYVrb-1" edge="1">
          <mxGeometry width="50" height="50" relative="1" as="geometry">
            <mxPoint x="1029" y="-121" as="sourcePoint" />
            <mxPoint x="1323" y="-210" as="targetPoint" />
          </mxGeometry>
        </mxCell>
        <mxCell id="DqBkRv8KrqaulyezYVrb-107" value="&lt;div&gt;Custom&lt;/div&gt;&lt;div&gt;εμφάνιση εστιατοριου&lt;br&gt;&lt;/div&gt;" style="ellipse;whiteSpace=wrap;html=1;" parent="1" vertex="1">
          <mxGeometry x="1534" y="-171" width="120" height="80" as="geometry" />
        </mxCell>
        <mxCell id="DqBkRv8KrqaulyezYVrb-110" value="" style="rounded=0;whiteSpace=wrap;html=1;fillColor=none;noLabel=0;editable=1;movable=1;resizable=1;rotatable=1;deletable=1;locked=0;connectable=1;pointerEvents=0;" parent="1" vertex="1">
          <mxGeometry x="394" y="-547" width="865" height="1203" as="geometry" />
        </mxCell>
        <mxCell id="DqBkRv8KrqaulyezYVrb-109" value="" style="endArrow=none;html=1;rounded=0;exitX=0;exitY=0.5;exitDx=0;exitDy=0;entryX=0.5;entryY=0.5;entryDx=0;entryDy=0;entryPerimeter=0;" parent="1" source="DqBkRv8KrqaulyezYVrb-107" target="DqBkRv8KrqaulyezYVrb-1" edge="1">
          <mxGeometry width="50" height="50" relative="1" as="geometry">
            <mxPoint x="1293" y="45" as="sourcePoint" />
            <mxPoint x="1745" y="-287" as="targetPoint" />
          </mxGeometry>
        </mxCell>
        <mxCell id="DqBkRv8KrqaulyezYVrb-111" value="&lt;font style=&quot;font-size: 60px;&quot;&gt;Εστιατόριο&lt;/font&gt;" style="text;html=1;align=center;verticalAlign=middle;whiteSpace=wrap;rounded=0;" parent="1" vertex="1">
          <mxGeometry x="660" y="-529" width="341" height="66.5" as="geometry" />
        </mxCell>
        <mxCell id="DqBkRv8KrqaulyezYVrb-112" value="&lt;div&gt;Αλλαγη μηνιαίου&lt;/div&gt;&lt;div&gt;πλάνου&lt;br&gt;&lt;/div&gt;" style="ellipse;whiteSpace=wrap;html=1;" parent="1" vertex="1">
          <mxGeometry x="1543" y="-402" width="120" height="80" as="geometry" />
        </mxCell>
        <mxCell id="DqBkRv8KrqaulyezYVrb-113" value="" style="endArrow=none;html=1;rounded=0;exitX=0;exitY=0.5;exitDx=0;exitDy=0;entryX=0.5;entryY=0.5;entryDx=0;entryDy=0;entryPerimeter=0;" parent="1" source="DqBkRv8KrqaulyezYVrb-112" target="DqBkRv8KrqaulyezYVrb-1" edge="1">
          <mxGeometry width="50" height="50" relative="1" as="geometry">
            <mxPoint x="1718" y="-176" as="sourcePoint" />
            <mxPoint x="1373" y="-216" as="targetPoint" />
          </mxGeometry>
        </mxCell>
        <mxCell id="DqBkRv8KrqaulyezYVrb-114" value="Team του eστιατοριο" style="shape=umlActor;verticalLabelPosition=bottom;verticalAlign=top;html=1;outlineConnect=0;" parent="1" vertex="1">
          <mxGeometry x="1902" y="-186" width="30" height="60" as="geometry" />
        </mxCell>
        <mxCell id="DqBkRv8KrqaulyezYVrb-115" value="&lt;div&gt;Διαχείριση &lt;br&gt;&lt;/div&gt;&lt;div&gt;εστιατορίων&lt;br&gt;&lt;/div&gt;" style="ellipse;whiteSpace=wrap;html=1;" parent="1" vertex="1">
          <mxGeometry x="1628" y="-299" width="120" height="80" as="geometry" />
        </mxCell>
        <mxCell id="DqBkRv8KrqaulyezYVrb-116" value="&lt;div&gt;Παροχή τεχνικής&lt;/div&gt;&lt;div&gt;υποστήριξης&lt;br&gt;&lt;/div&gt;" style="ellipse;whiteSpace=wrap;html=1;" parent="1" vertex="1">
          <mxGeometry x="1630" y="-56" width="120" height="80" as="geometry" />
        </mxCell>
        <mxCell id="DqBkRv8KrqaulyezYVrb-117" value="" style="endArrow=none;html=1;rounded=0;exitX=0.5;exitY=0.5;exitDx=0;exitDy=0;entryX=1;entryY=0.5;entryDx=0;entryDy=0;exitPerimeter=0;" parent="1" source="DqBkRv8KrqaulyezYVrb-114" target="DqBkRv8KrqaulyezYVrb-115" edge="1">
          <mxGeometry width="50" height="50" relative="1" as="geometry">
            <mxPoint x="2404" y="-389" as="sourcePoint" />
            <mxPoint x="2024" y="-243" as="targetPoint" />
          </mxGeometry>
        </mxCell>
        <mxCell id="DqBkRv8KrqaulyezYVrb-118" value="" style="endArrow=none;html=1;rounded=0;exitX=0.5;exitY=0.5;exitDx=0;exitDy=0;entryX=1;entryY=0.5;entryDx=0;entryDy=0;exitPerimeter=0;" parent="1" source="DqBkRv8KrqaulyezYVrb-114" target="DqBkRv8KrqaulyezYVrb-116" edge="1">
          <mxGeometry width="50" height="50" relative="1" as="geometry">
            <mxPoint x="2414" y="-206" as="sourcePoint" />
            <mxPoint x="2096" y="-308" as="targetPoint" />
          </mxGeometry>
        </mxCell>
        <mxCell id="DqBkRv8KrqaulyezYVrb-124" value="" style="rounded=0;whiteSpace=wrap;html=1;fillColor=none;pointerEvents=0;" parent="1" vertex="1">
          <mxGeometry x="1474" y="-487" width="370" height="539" as="geometry" />
        </mxCell>
        <mxCell id="DqBkRv8KrqaulyezYVrb-125" value="&lt;font style=&quot;font-size: 60px;&quot;&gt;eστιατόριο&lt;/font&gt;" style="text;html=1;align=center;verticalAlign=middle;whiteSpace=wrap;rounded=0;" parent="1" vertex="1">
          <mxGeometry x="1479" y="-479" width="376" height="54" as="geometry" />
        </mxCell>
        <mxCell id="DqBkRv8KrqaulyezYVrb-127" value="" style="endArrow=none;html=1;rounded=0;entryX=0;entryY=1;entryDx=0;entryDy=0;exitX=0.5;exitY=0.5;exitDx=0;exitDy=0;exitPerimeter=0;" parent="1" source="DqBkRv8KrqaulyezYVrb-10" target="DqBkRv8KrqaulyezYVrb-34" edge="1">
          <mxGeometry width="50" height="50" relative="1" as="geometry">
            <mxPoint x="279" y="434" as="sourcePoint" />
            <mxPoint x="749" y="659" as="targetPoint" />
          </mxGeometry>
        </mxCell>
        <mxCell id="E7eFKCQ7DTerx9ZcQntK-2" value="" style="endArrow=none;html=1;rounded=0;entryX=0;entryY=0.5;entryDx=0;entryDy=0;exitX=0.5;exitY=0.5;exitDx=0;exitDy=0;exitPerimeter=0;" edge="1" parent="1" source="DqBkRv8KrqaulyezYVrb-10" target="DqBkRv8KrqaulyezYVrb-27">
          <mxGeometry width="50" height="50" relative="1" as="geometry">
            <mxPoint x="313" y="334" as="sourcePoint" />
            <mxPoint x="758" y="436" as="targetPoint" />
          </mxGeometry>
        </mxCell>
        <mxCell id="E7eFKCQ7DTerx9ZcQntK-3" value="" style="endArrow=none;html=1;rounded=0;entryX=0;entryY=0.5;entryDx=0;entryDy=0;exitX=0.5;exitY=0.5;exitDx=0;exitDy=0;exitPerimeter=0;" edge="1" parent="1" source="DqBkRv8KrqaulyezYVrb-9" target="DqBkRv8KrqaulyezYVrb-27">
          <mxGeometry width="50" height="50" relative="1" as="geometry">
            <mxPoint x="332" y="251" as="sourcePoint" />
            <mxPoint x="494" y="220" as="targetPoint" />
          </mxGeometry>
        </mxCell>
        <mxCell id="E7eFKCQ7DTerx9ZcQntK-9" value="" style="endArrow=none;html=1;rounded=0;entryX=0;entryY=0.5;entryDx=0;entryDy=0;exitX=0.5;exitY=0.5;exitDx=0;exitDy=0;exitPerimeter=0;" edge="1" parent="1" source="DqBkRv8KrqaulyezYVrb-10" target="DqBkRv8KrqaulyezYVrb-24">
          <mxGeometry width="50" height="50" relative="1" as="geometry">
            <mxPoint x="345" y="259" as="sourcePoint" />
            <mxPoint x="507" y="228" as="targetPoint" />
          </mxGeometry>
        </mxCell>
        <mxCell id="E7eFKCQ7DTerx9ZcQntK-10" value="" style="endArrow=none;html=1;rounded=0;exitX=1;exitY=0;exitDx=0;exitDy=0;entryX=0.5;entryY=0.5;entryDx=0;entryDy=0;entryPerimeter=0;" edge="1" parent="1" source="DqBkRv8KrqaulyezYVrb-34" target="DqBkRv8KrqaulyezYVrb-1">
          <mxGeometry width="50" height="50" relative="1" as="geometry">
            <mxPoint x="843" y="-16" as="sourcePoint" />
            <mxPoint x="1358" y="-121" as="targetPoint" />
          </mxGeometry>
        </mxCell>
        <mxCell id="E7eFKCQ7DTerx9ZcQntK-23" value="Προβολη&amp;nbsp;&lt;div&gt;λογαριασμου&lt;/div&gt;" style="ellipse;whiteSpace=wrap;html=1;" vertex="1" parent="1">
          <mxGeometry x="241" y="162" width="120" height="80" as="geometry" />
        </mxCell>
        <mxCell id="E7eFKCQ7DTerx9ZcQntK-25" value="Αξιολογηση&lt;div&gt;εστιατοριων&lt;/div&gt;" style="ellipse;whiteSpace=wrap;html=1;" vertex="1" parent="1">
          <mxGeometry x="486" y="-241" width="120" height="80" as="geometry" />
        </mxCell>
        <mxCell id="E7eFKCQ7DTerx9ZcQntK-27" value="" style="endArrow=none;html=1;rounded=0;entryX=0;entryY=0;entryDx=0;entryDy=0;exitX=1;exitY=1;exitDx=0;exitDy=0;" edge="1" parent="1" source="DqBkRv8KrqaulyezYVrb-23" target="DqBkRv8KrqaulyezYVrb-24">
          <mxGeometry width="50" height="50" relative="1" as="geometry">
            <mxPoint x="346" y="125" as="sourcePoint" />
            <mxPoint x="520" y="181" as="targetPoint" />
          </mxGeometry>
        </mxCell>
        <mxCell id="E7eFKCQ7DTerx9ZcQntK-28" value="" style="endArrow=none;html=1;rounded=0;exitX=1;exitY=0.5;exitDx=0;exitDy=0;" edge="1" parent="1" source="DqBkRv8KrqaulyezYVrb-23" target="DqBkRv8KrqaulyezYVrb-28">
          <mxGeometry width="50" height="50" relative="1" as="geometry">
            <mxPoint x="601.57" y="104.28" as="sourcePoint" />
            <mxPoint x="650.57" y="171.28" as="targetPoint" />
          </mxGeometry>
        </mxCell>
        <mxCell id="E7eFKCQ7DTerx9ZcQntK-29" value="" style="endArrow=none;html=1;rounded=0;entryX=0.05;entryY=0.276;entryDx=0;entryDy=0;entryPerimeter=0;exitX=0.5;exitY=0.5;exitDx=0;exitDy=0;exitPerimeter=0;" edge="1" parent="1" source="DqBkRv8KrqaulyezYVrb-9" target="DqBkRv8KrqaulyezYVrb-36">
          <mxGeometry width="50" height="50" relative="1" as="geometry">
            <mxPoint x="299" y="90" as="sourcePoint" />
            <mxPoint x="486" y="144" as="targetPoint" />
          </mxGeometry>
        </mxCell>
        <mxCell id="E7eFKCQ7DTerx9ZcQntK-30" value="" style="endArrow=none;html=1;rounded=0;entryX=0;entryY=0.5;entryDx=0;entryDy=0;" edge="1" parent="1" source="DqBkRv8KrqaulyezYVrb-10" target="DqBkRv8KrqaulyezYVrb-17">
          <mxGeometry width="50" height="50" relative="1" as="geometry">
            <mxPoint x="328" y="427" as="sourcePoint" />
            <mxPoint x="796" y="206" as="targetPoint" />
          </mxGeometry>
        </mxCell>
        <mxCell id="E7eFKCQ7DTerx9ZcQntK-31" value="" style="endArrow=none;html=1;rounded=0;entryX=0;entryY=0.5;entryDx=0;entryDy=0;exitX=0.5;exitY=0.5;exitDx=0;exitDy=0;exitPerimeter=0;" edge="1" parent="1" source="DqBkRv8KrqaulyezYVrb-10" target="DqBkRv8KrqaulyezYVrb-36">
          <mxGeometry width="50" height="50" relative="1" as="geometry">
            <mxPoint x="151" y="304" as="sourcePoint" />
            <mxPoint x="477" y="165" as="targetPoint" />
          </mxGeometry>
        </mxCell>
        <mxCell id="E7eFKCQ7DTerx9ZcQntK-32" value="" style="endArrow=none;html=1;rounded=0;entryX=0;entryY=0.5;entryDx=0;entryDy=0;exitX=1;exitY=0.5;exitDx=0;exitDy=0;" edge="1" parent="1" source="DqBkRv8KrqaulyezYVrb-27" target="DqBkRv8KrqaulyezYVrb-18">
          <mxGeometry width="50" height="50" relative="1" as="geometry">
            <mxPoint x="477" y="381" as="sourcePoint" />
            <mxPoint x="798" y="359" as="targetPoint" />
          </mxGeometry>
        </mxCell>
        <mxCell id="E7eFKCQ7DTerx9ZcQntK-33" value="" style="endArrow=none;html=1;rounded=0;entryX=0.5;entryY=0;entryDx=0;entryDy=0;exitX=0.5;exitY=0.5;exitDx=0;exitDy=0;exitPerimeter=0;" edge="1" parent="1" source="DqBkRv8KrqaulyezYVrb-9" target="E7eFKCQ7DTerx9ZcQntK-23">
          <mxGeometry width="50" height="50" relative="1" as="geometry">
            <mxPoint x="-44" y="136" as="sourcePoint" />
            <mxPoint x="305" y="445" as="targetPoint" />
          </mxGeometry>
        </mxCell>
        <mxCell id="E7eFKCQ7DTerx9ZcQntK-34" value="" style="endArrow=none;html=1;rounded=0;entryX=0.5;entryY=0.5;entryDx=0;entryDy=0;exitX=0.5;exitY=1;exitDx=0;exitDy=0;entryPerimeter=0;" edge="1" parent="1" source="E7eFKCQ7DTerx9ZcQntK-23" target="DqBkRv8KrqaulyezYVrb-10">
          <mxGeometry width="50" height="50" relative="1" as="geometry">
            <mxPoint x="86" y="231" as="sourcePoint" />
            <mxPoint x="91" y="367" as="targetPoint" />
          </mxGeometry>
        </mxCell>
        <mxCell id="E7eFKCQ7DTerx9ZcQntK-35" value="" style="endArrow=none;html=1;rounded=0;entryX=0.5;entryY=0.5;entryDx=0;entryDy=0;entryPerimeter=0;exitX=0.5;exitY=1;exitDx=0;exitDy=0;" edge="1" parent="1" source="DqBkRv8KrqaulyezYVrb-41" target="DqBkRv8KrqaulyezYVrb-11">
          <mxGeometry width="50" height="50" relative="1" as="geometry">
            <mxPoint x="1417" y="125" as="sourcePoint" />
            <mxPoint x="1932" y="316" as="targetPoint" />
          </mxGeometry>
        </mxCell>
      </root>
    </mxGraphModel>
  </diagram>
</mxfile>
